<?xml version="1.0" encoding="UTF-8"?>
<svg version="1.1" xmlns="http://www.w3.org/2000/svg" width="500" height="190">
<path d="M0 0 C17.63910284 15.15371996 27.03293135 35.23559607 28.859375 58.203125 C29.52804672 79.3080761 22.39194344 99.26972936 8.546875 115.2734375 C-5.9033723 130.4258128 -25.62993257 140.71166761 -46.80908203 141.34375 C-70.34056885 141.26807085 -90.5197898 133.72916446 -107.703125 117.3984375 C-123.40567892 100.89636454 -130.17031037 80.7980272 -129.92163086 58.37060547 C-129.29196332 39.53976462 -122.22093438 22.18864084 -109.453125 8.2734375 C-108.78925781 7.51804687 -108.12539062 6.76265625 -107.44140625 5.984375 C-79.70264443 -23.85658504 -31.25455427 -25.45419148 0 0 Z M-108.78125 15.0078125 C-122.30528562 32.86779847 -126.86192236 52.53468132 -124.171875 74.578125 C-121.10623267 93.59904221 -109.56276124 110.64741184 -94.453125 122.2734375 C-76.57221367 134.41317387 -56.83931624 138.6207496 -35.43066406 134.68310547 C-15.25394699 130.5032868 0.85444634 118.70557018 12.171875 101.6484375 C16.53004255 94.87109824 19.30966387 88.03787611 21.546875 80.2734375 C21.79179687 79.43554688 22.03671875 78.59765625 22.2890625 77.734375 C26.93226251 58.71633661 22.25873793 38.11318317 12.296875 21.6484375 C1.07610047 4.85347175 -14.81924498 -6.91502266 -34.61450195 -11.2734375 C-62.98068774 -16.74227679 -90.15098374 -6.8733727 -108.78125 15.0078125 Z " fill="#103492" transform="translate(195.453125,31.7265625)"/>
<path d="M0 0 C11.33309311 9.6868487 19.40764251 21.99219248 21.3046875 36.99609375 C22.35808123 54.86327196 18.17663429 68.12131075 7.26953125 82.16015625 C5.3046875 83.99609375 5.3046875 83.99609375 1.3046875 83.99609375 C1.88739353 80.50752476 3.0864475 78.91793097 5.5546875 76.43359375 C15.56538888 65.41565548 17.17686312 51.51478919 16.5 37.27246094 C15.72374153 28.22516842 11.38628285 20.34328703 6.3046875 12.99609375 C5.86511719 12.35929687 5.42554688 11.7225 4.97265625 11.06640625 C-2.00394303 2.01894321 -13.71122925 -3.55408114 -24.6953125 -6.00390625 C-40.45644929 -6.97406704 -53.92469478 -5.13098667 -66.6953125 4.99609375 C-77.35137869 14.70944318 -83.05482264 26.71602009 -84.6953125 40.99609375 C-85.21055687 55.016986 -80.99489304 67.39611857 -72.20703125 78.3046875 C-62.34267107 88.87474064 -49.85000555 94.12923463 -35.6953125 95.99609375 C-35.6953125 97.31609375 -35.6953125 98.63609375 -35.6953125 99.99609375 C-52.64141288 97.68526188 -66.54639154 92.18986024 -77.72265625 78.515625 C-87.54558098 65.12072764 -90.07757731 51.29645151 -88.6953125 34.99609375 C-87.84964558 30.39777985 -86.53129554 26.28964658 -84.6953125 21.99609375 C-84.09396484 20.58457031 -84.09396484 20.58457031 -83.48046875 19.14453125 C-76.52201005 4.82422494 -64.02230371 -4.03160548 -49.3359375 -9.2421875 C-32.37116653 -14.13587143 -14.08580064 -10.47248656 0 0 Z " fill="#133690" transform="translate(178.6953125,49.00390625)"/>
<path d="M0 0 C0.99 0.99 1.98 1.98 3 3 C2.443125 3.57105469 1.88625 4.14210938 1.3125 4.73046875 C-15.02261155 22.08652477 -22.95317705 42.58019573 -22.28515625 66.31640625 C-21.25637934 87.39557174 -12.66346433 105.08758042 2 120 C2.68707031 120.69996094 3.37414062 121.39992188 4.08203125 122.12109375 C20.36476682 137.61839124 40.96071671 142.66503322 62.88671875 142.3359375 C84.90124679 141.50181885 103.64499891 130.97002668 118.6875 115.3125 C131.187486 100.84471656 136.23505537 83.56783952 139 65 C139.99 65 140.98 65 142 65 C141.3859011 83.48437676 135.24445767 101.86947672 123 116 C122.37996094 116.7734375 121.75992188 117.546875 121.12109375 118.34375 C106.96434397 135.23799284 86.64926302 144.38113754 65 147 C42.46738647 148.68832263 19.62106946 140.86339345 2.55859375 126.26953125 C1.29208984 125.14611328 1.29208984 125.14611328 0 124 C-0.71027344 123.38511719 -1.42054687 122.77023438 -2.15234375 122.13671875 C-16.80285734 108.58862005 -25.29865083 88.11350306 -26.3515625 68.44921875 C-27.16694716 44.28613315 -21.01176741 24.33330299 -5 6 C-3.99756798 4.7936835 -2.99718039 3.58566127 -2 2.375 C-1.34 1.59125 -0.68 0.8075 0 0 Z " fill="#11348B" transform="translate(87,31)"/>
<path d="M0 0 C0 0.99 0 1.98 0 3 C-1.24394531 3.17015625 -2.48789063 3.3403125 -3.76953125 3.515625 C-23.4981121 6.33314334 -39.86950957 12.06591791 -53 28 C-63.56957222 42.85383004 -67.65018098 59.37939648 -65.609375 77.4609375 C-62.61502602 94.23696962 -54.11007908 108.02778855 -40.5625 118.3125 C-25.83739094 128.44239472 -9.66113394 132.31569675 8.09033203 129.69091797 C20.3359019 127.35857031 30.40252229 121.75498199 40 114 C40.99 114.99 41.98 115.98 43 117 C37.53506038 121.95059236 31.98313178 125.79171159 25.3125 128.875 C24.38715454 129.30341187 24.38715454 129.30341187 23.44311523 129.74047852 C6.69176643 137.19421411 -12.07730227 136.4499562 -29.1875 130.375 C-47.19527289 122.4018615 -59.59199011 107.99224257 -66.95703125 90.01953125 C-73.00047761 72.52296183 -71.4196144 53.50366083 -63.75 36.8125 C-54.7226148 20.14865602 -41.1965191 8.33491521 -22.94140625 2.68359375 C-15.31056619 0.52266384 -7.95762762 -0.6069377 0 0 Z " fill="#14368F" transform="translate(148,26)"/>
<path d="M0 0 C0.99 0.33 1.98 0.66 3 1 C2.67 3.64 2.34 6.28 2 9 C5.96 9 9.92 9 14 9 C14 6.36 14 3.72 14 1 C14.99 1 15.98 1 17 1 C17 3.64 17 6.28 17 9 C20.63 9 24.26 9 28 9 C28 6.36 28 3.72 28 1 C28.99 1 29.98 1 31 1 C31 3.64 31 6.28 31 9 C32.2375 8.9175 33.475 8.835 34.75 8.75 C37.76252076 8.7713654 38.84348817 8.9060929 41.5 10.5 C43.68405234 14.14008723 43.28023018 16.79654733 43 21 C46.96 20.505 46.96 20.505 51 20 C51.495 21.485 51.495 21.485 52 23 C51.67 23.66 51.34 24.32 51 25 C48.36 24.67 45.72 24.34 43 24 C43 27.96 43 31.92 43 36 C45.97 36 48.94 36 52 36 C51.505 36.99 51.505 36.99 51 38 C48.36 38 45.72 38 43 38 C43 41.96 43 45.92 43 50 C45.64 50 48.28 50 51 50 C51 50.99 51 51.98 51 53 C48.36 53 45.72 53 43 53 C43.04125 54.258125 43.0825 55.51625 43.125 56.8125 C43.2390374 60.29064073 43.05925681 60.91111478 41 64 C38.6171875 64.29296875 38.6171875 64.29296875 35.875 64.1875 C34.96492188 64.16042969 34.05484375 64.13335937 33.1171875 64.10546875 C32.41851562 64.07066406 31.71984375 64.03585938 31 64 C31 66.97 31 69.94 31 73 C30.01 73 29.02 73 28 73 C28 70.03 28 67.06 28 64 C24.37 64 20.74 64 17 64 C17 66.64 17 69.28 17 72 C16.01 72.33 15.02 72.66 14 73 C14 70.03 14 67.06 14 64 C10.04 64 6.08 64 2 64 C2.33 66.97 2.66 69.94 3 73 C1.35 72.67 -0.3 72.34 -2 72 C-1.67 69.36 -1.34 66.72 -1 64 C-1.62648437 64.02320312 -2.25296875 64.04640625 -2.8984375 64.0703125 C-3.71570313 64.08835937 -4.53296875 64.10640625 -5.375 64.125 C-6.18710938 64.14820312 -6.99921875 64.17140625 -7.8359375 64.1953125 C-10 64 -10 64 -12 62 C-12.1953125 59.8359375 -12.1953125 59.8359375 -12.125 57.375 C-12.09792969 56.14910156 -12.09792969 56.14910156 -12.0703125 54.8984375 C-12.03550781 53.95871094 -12.03550781 53.95871094 -12 53 C-14.64 53.33 -17.28 53.66 -20 54 C-20.33 52.35 -20.66 50.7 -21 49 C-18.03 49.33 -15.06 49.66 -12 50 C-12 46.04 -12 42.08 -12 38 C-14.97 38 -17.94 38 -21 38 C-21 37.34 -21 36.68 -21 36 C-18.03 36 -15.06 36 -12 36 C-12 32.04 -12 28.08 -12 24 C-14.97 24 -17.94 24 -21 24 C-21 23.01 -21 22.02 -21 21 C-18.03 21 -15.06 21 -12 21 C-12.061875 19.576875 -12.12375 18.15375 -12.1875 16.6875 C-12.30855839 13.90315701 -12.36575414 12.52119964 -10.75 10.21875 C-7.66322536 8.06903195 -4.66205194 8.81989909 -1 9 C-1.20625 7.88625 -1.4125 6.7725 -1.625 5.625 C-1.74875 4.42875 -1.8725 3.2325 -2 2 C-1.34 1.34 -0.68 0.68 0 0 Z M-9 12 C-10.17927497 14.35854995 -10.13283758 15.78816715 -10.14526367 18.41796875 C-10.15164352 19.33231689 -10.15802338 20.24666504 -10.16459656 21.1887207 C-10.16570938 22.17831787 -10.1668222 23.16791504 -10.16796875 24.1875 C-10.17129715 25.20094482 -10.17462555 26.21438965 -10.17805481 27.25854492 C-10.18312315 29.40380397 -10.18546316 31.54907091 -10.18530273 33.69433594 C-10.187491 36.98645922 -10.20565268 40.27824848 -10.22460938 43.5703125 C-10.22754288 45.65104052 -10.22952796 47.73177013 -10.23046875 49.8125 C-10.23765427 50.80209717 -10.24483978 51.79169434 -10.25224304 52.8112793 C-10.24916641 53.72562744 -10.24608978 54.63997559 -10.24291992 55.58203125 C-10.24434494 56.38874268 -10.24576996 57.1954541 -10.24723816 58.02661133 C-10.17578193 60.23336356 -10.17578193 60.23336356 -8 62 C-5.90595484 62.29864249 -5.90595484 62.29864249 -3.47436523 62.24291992 C-2.53676865 62.24599655 -1.59917206 62.24907318 -0.63316345 62.25224304 C0.38144455 62.24505753 1.39605255 62.23787201 2.44140625 62.23046875 C3.47941879 62.23001053 4.51743134 62.22955231 5.5868988 62.2290802 C7.78344871 62.22605583 9.97999643 62.21816405 12.17651367 62.20581055 C15.55199722 62.1875568 18.92720664 62.18530079 22.30273438 62.18554688 C24.43229406 62.18063177 26.56185187 62.17480349 28.69140625 62.16796875 C29.70803848 62.16685593 30.72467072 62.1657431 31.77210999 62.16459656 C32.70655441 62.15821671 33.64099884 62.15183685 34.60375977 62.14526367 C35.84380516 62.13954597 35.84380516 62.13954597 37.10890198 62.13371277 C39.01169083 62.20680029 39.01169083 62.20680029 40 61 C40.09831146 59.50129952 40.12798456 57.99801461 40.12939453 56.49609375 C40.13412277 55.05955444 40.13412277 55.05955444 40.13894653 53.59399414 C40.1369223 52.55235107 40.13489807 51.51070801 40.1328125 50.4375 C40.13376923 49.37587646 40.13472595 48.31425293 40.13571167 47.22045898 C40.13639364 44.97086528 40.13453819 42.72126963 40.13037109 40.47167969 C40.1250231 37.01492929 40.13031554 33.55830883 40.13671875 30.1015625 C40.13605797 27.92187471 40.13477682 25.742187 40.1328125 23.5625 C40.13483673 22.52085693 40.13686096 21.47921387 40.13894653 20.40600586 C40.13579437 19.44831299 40.13264221 18.49062012 40.12939453 17.50390625 C40.12859894 16.65642822 40.12780334 15.8089502 40.12698364 14.93579102 C40.21319708 12.9934287 40.21319708 12.9934287 39 12 C37.49581261 11.90688111 35.98728644 11.88253972 34.48022461 11.88647461 C33.51930405 11.88655014 32.55838348 11.88662567 31.56834412 11.88670349 C30.00117393 11.89444542 30.00117393 11.89444542 28.40234375 11.90234375 C27.33834854 11.9037587 26.27435333 11.90517365 25.17811584 11.90663147 C21.76454917 11.91224936 18.351047 11.92480489 14.9375 11.9375 C12.62955824 11.94251269 10.32161545 11.947076 8.01367188 11.95117188 C2.34242574 11.9622246 -3.32878253 11.97898013 -9 12 Z " fill="#060607" transform="translate(130,59)"/>
<path d="M0 0 C4.29 0 8.58 0 13 0 C13.33 1.32 13.66 2.64 14 4 C14.928125 4.103125 15.85625 4.20625 16.8125 4.3125 C20.14046037 5.03029537 21.11262269 5.2633029 23 8 C24.41326621 11.61168032 25.34828102 15.18278885 26 19 C26.3403125 20.7325 26.3403125 20.7325 26.6875 22.5 C27.01121228 26.12557748 26.83166725 27.88616568 25 31 C24.01 31.33 23.02 31.66 22 32 C21.67 33.98 21.34 35.96 21 38 C10.63414634 41.31707317 10.63414634 41.31707317 6 39 C4.948125 39.185625 3.89625 39.37125 2.8125 39.5625 C-1.51190412 40.0587431 -4.02210254 39.75945464 -8 38 C-9.75 35.0625 -9.75 35.0625 -11 32 C-11.556875 31.505 -12.11375 31.01 -12.6875 30.5 C-14 29 -14 29 -14.25 26 C-14 23 -14 23 -13 20 C-12.96079185 18.00038436 -12.95556653 15.99950636 -13 14 C-12.01 13.67 -11.02 13.34 -10 13 C-10.0825 12.071875 -10.165 11.14375 -10.25 10.1875 C-10 7 -10 7 -8.25 5.125 C-6 4 -6 4 -2 4 C-1.34 2.68 -0.68 1.36 0 0 Z M2 2 C0.70366379 3.06645115 0.70366379 3.06645115 0.9375 5.5625 C0.958125 6.366875 0.97875 7.17125 1 8 C0.071875 7.773125 -0.85625 7.54625 -1.8125 7.3125 C-4.91000174 6.69552789 -4.91000174 6.69552789 -6.9375 8.125 C-8.26380275 10.03554076 -8.26380275 10.03554076 -7.6875 12.6875 C-7.460625 13.450625 -7.23375 14.21375 -7 15 C-8.98 15.99 -8.98 15.99 -11 17 C-10.67 17.66 -10.34 18.32 -10 19 C-9.34 19 -8.68 19 -8 19 C-8.515625 19.721875 -9.03125 20.44375 -9.5625 21.1875 C-11.21442982 24.4195366 -11.06351675 25.61608307 -10 29 C-9.01 29.33 -8.02 29.66 -7 30 C-7 31.65 -7 33.3 -7 35 C-2.58774263 36.47075246 0.48281619 37.36884358 5 36 C5 34.35 5 32.7 5 31 C3.68 30.67 2.36 30.34 1 30 C0.67 31.32 0.34 32.64 0 34 C-0.66 33.67 -1.32 33.34 -2 33 C-1.67 31.68 -1.34 30.36 -1 29 C0.98 28.67 2.96 28.34 5 28 C5 19.75 5 11.5 5 3 C4.01 2.67 3.02 2.34 2 2 Z M9 2 C7.68737429 3.08552366 7.68737429 3.08552366 7.90234375 5.72265625 C7.91394531 6.82480469 7.92554688 7.92695312 7.9375 9.0625 C7.94652344 10.16722656 7.95554688 11.27195312 7.96484375 12.41015625 C7.97644531 13.26480469 7.98804688 14.11945313 8 15 C9.32 15 10.64 15 12 15 C12.66 14.01 13.32 13.02 14 12 C14 13.65 14 15.3 14 17 C12.02 17 10.04 17 8 17 C8 23.27 8 29.54 8 36 C12.49202386 36.89840477 14.68380697 36.90338924 19 36 C19.0825 35.236875 19.165 34.47375 19.25 33.6875 C20.14615794 30.47626739 21.21611025 29.70625501 24 28 C23.67 26.35 23.34 24.7 23 23 C22.01 22.67 21.02 22.34 20 22 C20.515625 21.5875 21.03125 21.175 21.5625 20.75 C22.036875 20.1725 22.51125 19.595 23 19 C22.77242269 16.83700789 22.77242269 16.83700789 22 15 C21.34 15 20.68 15 20 15 C20.04125 14.05125 20.0825 13.1025 20.125 12.125 C20.34973818 8.89755144 20.34973818 8.89755144 18 7 C14.40320934 7.32326553 14.40320934 7.32326553 11 8 C11.33 6.35 11.66 4.7 12 3 C11.01 2.67 10.02 2.34 9 2 Z " fill="#080808" transform="translate(139,76)"/>
<path d="M0 0 C3.582906 -0.14533755 7.16505417 -0.23407931 10.75 -0.3125 C11.76578125 -0.35439453 12.7815625 -0.39628906 13.828125 -0.43945312 C14.8078125 -0.45556641 15.7875 -0.47167969 16.796875 -0.48828125 C18.14797363 -0.52755737 18.14797363 -0.52755737 19.52636719 -0.56762695 C22 0 22 0 24.30078125 2.15820312 C26.25564605 5.42754598 26.46809201 7.1805146 26.390625 10.95703125 C26.37128906 12.62475586 26.37128906 12.62475586 26.3515625 14.32617188 C26.31804687 15.47666016 26.28453125 16.62714844 26.25 17.8125 C26.23195313 18.98232422 26.21390625 20.15214844 26.1953125 21.35742188 C26.1482644 24.2391178 26.08253709 27.11913797 26 30 C24.02 30 22.04 30 20 30 C19.505 18.12 19.505 18.12 19 6 C13.06 5.67 7.12 5.34 1 5 C1 8.3 1 11.6 1 15 C6.61 15 12.22 15 18 15 C18 16.98 18 18.96 18 21 C12.39 21 6.78 21 1 21 C1 23.97 1 26.94 1 30 C-0.98 30 -2.96 30 -5 30 C-5 21.42 -5 12.84 -5 4 C-3.35 4 -1.7 4 0 4 C0 2.68 0 1.36 0 0 Z " fill="#010101" transform="translate(280,82)"/>
<path d="M0 0 C2.625 -0.0625 2.625 -0.0625 6 1 C10.84141145 6.23865546 13.74044155 13.23209897 16.80078125 19.59375 C17.78828953 21.89410965 17.78828953 21.89410965 19 23 C19.33 15.41 19.66 7.82 20 0 C21.98 0 23.96 0 26 0 C26 8.58 26 17.16 26 26 C24.35 26 22.7 26 21 26 C21 27.32 21 28.64 21 30 C18.3125 29.9375 18.3125 29.9375 15 29 C10.25528043 23.76864253 7.50604864 17.22823904 4.453125 10.9140625 C3.2785728 8.1728243 3.2785728 8.1728243 2 7 C1.67 14.59 1.34 22.18 1 30 C-0.98 30 -2.96 30 -5 30 C-5 21.42 -5 12.84 -5 4 C-3.35 4 -1.7 4 0 4 C0 2.68 0 1.36 0 0 Z " fill="#010101" transform="translate(312,82)"/>
<path d="M0 0 C0.94101562 0.00322266 1.88203125 0.00644531 2.8515625 0.00976562 C3.83640625 0.01814453 4.82125 0.02652344 5.8359375 0.03515625 C6.82851563 0.03966797 7.82109375 0.04417969 8.84375 0.04882812 C11.2995391 0.0606348 13.75520854 0.07710225 16.2109375 0.09765625 C16.2109375 1.41765625 16.2109375 2.73765625 16.2109375 4.09765625 C17.8609375 4.09765625 19.5109375 4.09765625 21.2109375 4.09765625 C21.2109375 6.07765625 21.2109375 8.05765625 21.2109375 10.09765625 C19.2309375 10.09765625 17.2509375 10.09765625 15.2109375 10.09765625 C15.2109375 8.44765625 15.2109375 6.79765625 15.2109375 5.09765625 C5.8059375 5.59265625 5.8059375 5.59265625 -3.7890625 6.09765625 C-3.7890625 12.36765625 -3.7890625 18.63765625 -3.7890625 25.09765625 C2.4809375 25.09765625 8.7509375 25.09765625 15.2109375 25.09765625 C15.2109375 24.10765625 15.2109375 23.11765625 15.2109375 22.09765625 C17.1909375 22.09765625 19.1709375 22.09765625 21.2109375 22.09765625 C21.2109375 24.73765625 21.2109375 27.37765625 21.2109375 30.09765625 C12.6309375 30.09765625 4.0509375 30.09765625 -4.7890625 30.09765625 C-4.7890625 28.77765625 -4.7890625 27.45765625 -4.7890625 26.09765625 C-6.4390625 26.09765625 -8.0890625 26.09765625 -9.7890625 26.09765625 C-9.8765752 22.86866199 -9.92962396 19.63997509 -9.9765625 16.41015625 C-10.00169922 15.49814453 -10.02683594 14.58613281 -10.05273438 13.64648438 C-10.14609201 5.08870102 -10.14609201 5.08870102 -6.7890625 1.09765625 C-4.33631109 -0.12871945 -2.7384844 -0.01649689 0 0 Z " fill="#020202" transform="translate(348.7890625,81.90234375)"/>
<path d="M0 0 C8.58 0 17.16 0 26 0 C26 1.65 26 3.3 26 5 C17.75 5 9.5 5 1 5 C1.33 11.27 1.66 17.54 2 24 C9.92 24.33 17.84 24.66 26 25 C26 26.65 26 28.3 26 30 C21.77119589 30.14541967 17.54303587 30.23411527 13.3125 30.3125 C12.11431641 30.35439453 10.91613281 30.39628906 9.68164062 30.43945312 C1.0065966 30.56027547 1.0065966 30.56027547 -3.3125 28.15625 C-5.80531852 23.4937561 -5.53929394 19.38282584 -5.3125 14.1875 C-5.28994141 13.20845703 -5.26738281 12.22941406 -5.24414062 11.22070312 C-5.18539727 8.81222545 -5.10332129 6.40690922 -5 4 C-3.35 4 -1.7 4 0 4 C0 2.68 0 1.36 0 0 Z " fill="#010101" transform="translate(376,82)"/>
<path d="M0 0 C1.98 0 3.96 0 6 0 C6.33 7.92 6.66 15.84 7 24 C13.93 24.33 20.86 24.66 28 25 C28 26.65 28 28.3 28 30 C24.08372337 30.14522934 20.16813847 30.23404757 16.25 30.3125 C15.13882812 30.35439453 14.02765625 30.39628906 12.8828125 30.43945312 C11.27792969 30.46362305 11.27792969 30.46362305 9.640625 30.48828125 C8.16384277 30.52755737 8.16384277 30.52755737 6.65722656 30.56762695 C4 30 4 30 1.671875 27.84179688 C-0.2493066 24.57623703 -0.46771242 22.80098058 -0.390625 19.04296875 C-0.37773437 17.93115234 -0.36484375 16.81933594 -0.3515625 15.67382812 C-0.31804687 14.52333984 -0.28453125 13.37285156 -0.25 12.1875 C-0.23195312 11.01767578 -0.21390625 9.84785156 -0.1953125 8.64257812 C-0.1482644 5.7608822 -0.08253709 2.88086203 0 0 Z " fill="#020202" transform="translate(246,82)"/>
<path d="M0 0 C3.63 0 7.26 0 11 0 C11 0.99 11 1.98 11 3 C8.69 3 6.38 3 4 3 C4 3.99 4 4.98 4 6 C5.98 6 7.96 6 10 6 C10 7.32 10 8.64 10 10 C8.02 10 6.04 10 4 10 C4 10.99 4 11.98 4 13 C6.31 13 8.62 13 11 13 C11 13.99 11 14.98 11 16 C7.37 16 3.74 16 0 16 C0 10.72 0 5.44 0 0 Z " fill="#143487" transform="translate(311,124)"/>
<path d="M0 0 C1.32 0.33 2.64 0.66 4 1 C3.67 2.65 3.34 4.3 3 6 C4.32 6 5.64 6 7 6 C7 4.02 7 2.04 7 0 C7.99 0 8.98 0 10 0 C10 5.28 10 10.56 10 16 C9.01 16 8.02 16 7 16 C7 14.02 7 12.04 7 10 C6.01 10 5.02 10 4 10 C4 11.98 4 13.96 4 16 C2.68 16 1.36 16 0 16 C0 10.72 0 5.44 0 0 Z " fill="#103498" transform="translate(342,124)"/>
<path d="M0 0 C6.6 0 13.2 0 20 0 C20 1.98 20 3.96 20 6 C13.4 6 6.8 6 0 6 C0 4.02 0 2.04 0 0 Z " fill="#010101" transform="translate(379,94)"/>
<path d="M0 0 C2 2 2 2 2 5 C-0.97 4.505 -0.97 4.505 -4 4 C-4.33 6.97 -4.66 9.94 -5 13 C-3.68 12.34 -2.36 11.68 -1 11 C-0.01 11 0.98 11 2 11 C1.67 12.65 1.34 14.3 1 16 C-4.35270192 17.33817548 -4.35270192 17.33817548 -7.17578125 15.86328125 C-9 14 -9 14 -9.49609375 11.40625 C-9.47675781 10.4471875 -9.45742188 9.488125 -9.4375 8.5 C-9.43621094 7.5409375 -9.43492187 6.581875 -9.43359375 5.59375 C-9 3 -9 3 -7.6640625 1.17578125 C-5.10968009 -0.62907581 -3.03253717 -0.32261034 0 0 Z " fill="#11368D" transform="translate(335,124)"/>
<path d="M0 0 C3.96 0 7.92 0 12 0 C12 1.32 12 2.64 12 4 C10.68 4 9.36 4 8 4 C8 7.96 8 11.92 8 16 C6.68 16 5.36 16 4 16 C4 12.04 4 8.08 4 4 C2.68 4 1.36 4 0 4 C0 2.68 0 1.36 0 0 Z " fill="#1A3989" transform="translate(295,124)"/>
<path d="M0 0 C0.33 0 0.66 0 1 0 C0.97643433 0.85380249 0.97643433 0.85380249 0.95239258 1.72485352 C0.88951561 4.33729874 0.85084468 6.9495841 0.8125 9.5625 C0.78736328 10.45775391 0.76222656 11.35300781 0.73632812 12.27539062 C0.67225605 18.10594934 1.52942876 21.75633859 4 27 C4.51171875 30.30859375 4.51171875 30.30859375 4.6875 33.4375 C4.75324219 34.48808594 4.81898437 35.53867188 4.88671875 36.62109375 C4.92410156 37.40613281 4.96148437 38.19117188 5 39 C4.01 39.495 4.01 39.495 3 40 C-0.68444311 27.00575866 -3.24752514 13.41254284 0 0 Z " fill="#103697" transform="translate(62,82)"/>
<path d="M0 0 C-1 1 -1 1 -2.84765625 1.09765625 C-4.8984375 1.06510417 -6.94921875 1.03255208 -9 1 C-9 4.96 -9 8.92 -9 13 C-6.36 13 -3.72 13 -1 13 C-1 13.99 -1 14.98 -1 16 C-3.64 16 -6.28 16 -9 16 C-9 17.98 -9 19.96 -9 22 C-9.99 21.67 -10.98 21.34 -12 21 C-12 14.4 -12 7.8 -12 1 C-2.25 -1.125 -2.25 -1.125 0 0 Z " fill="#0B0D10" transform="translate(182,96)"/>
<path d="M0 0 C9.63225483 -0.26349633 18.5005349 0.38306977 28 2 C28 2.33 28 2.66 28 3 C25.03 3 22.06 3 19 3 C19 3.66 19 4.32 19 5 C21.31 5 23.62 5 26 5 C26.33 5.66 26.66 6.32 27 7 C26.27296875 6.93941406 25.5459375 6.87882812 24.796875 6.81640625 C23.28867188 6.69072266 23.28867188 6.69072266 21.75 6.5625 C18.34375 6.27864583 14.9375 5.99479167 11.53125 5.7109375 C10.4484375 5.62070312 9.365625 5.53046875 8.25 5.4375 C5.625 5.21875 5.625 5.21875 3 5 C3 4.67 3 4.34 3 4 C3.95712891 3.90912109 3.95712891 3.90912109 4.93359375 3.81640625 C6.17302734 3.69072266 6.17302734 3.69072266 7.4375 3.5625 C8.26121094 3.48128906 9.08492187 3.40007813 9.93359375 3.31640625 C11.98662025 3.21069185 11.98662025 3.21069185 13 2 C8.71 1.67 4.42 1.34 0 1 C0 0.67 0 0.34 0 0 Z " fill="#123387" transform="translate(136,14)"/>
<path d="M0 0 C3.15624686 1.38736126 5.19863433 3.00392708 7.5625 5.5 C9.67524223 7.72096733 11.41613626 9.27742417 14 11 C14 12.32 14 13.64 14 15 C8.65743403 13.49740332 4.76271634 9.94028273 1 6 C-0.5 3.0625 -0.5 3.0625 -1 1 C-0.67 0.67 -0.34 0.34 0 0 Z " fill="#14388E" transform="translate(98,129)"/>
<path d="M0 0 C0 0.99 0 1.98 0 3 C-3.08120684 3.5339744 -6.16517859 4.04985551 -9.25 4.5625 C-10.12269531 4.71396484 -10.99539062 4.86542969 -11.89453125 5.02148438 C-12.73886719 5.16005859 -13.58320313 5.29863281 -14.453125 5.44140625 C-15.22817383 5.57232666 -16.00322266 5.70324707 -16.80175781 5.83813477 C-19.11173847 6.00822774 -20.80085213 5.68559092 -23 5 C-22.01 5 -21.02 5 -20 5 C-20.33 4.01 -20.66 3.02 -21 2 C-13.90673679 0.27669093 -7.29031024 -0.2494783 0 0 Z " fill="#10348D" transform="translate(148,26)"/>
<path d="M0 0 C5.27790693 3.0895065 9.49468345 6.94944036 13 12 C13 12.99 13 13.98 13 15 C9 15 9 15 7.18359375 13.35546875 C6.31927734 12.28232422 6.31927734 12.28232422 5.4375 11.1875 C2.97948409 8.16251991 2.97948409 8.16251991 0.265625 5.375 C-0.36085937 4.694375 -0.36085937 4.694375 -1 4 C-0.6875 1.8125 -0.6875 1.8125 0 0 Z " fill="#13368F" transform="translate(182,45)"/>
<path d="M0 0 C0 0.99 0 1.98 0 3 C-6.08356979 6.09212176 -11.18012971 7.56699236 -18 8 C-18 7.01 -18 6.02 -18 5 C-15.75267898 4.15875684 -13.50261215 3.32685168 -11.25 2.5 C-10.61578125 2.26152344 -9.9815625 2.02304688 -9.328125 1.77734375 C-5.96713393 0.55198242 -3.63128413 0 0 0 Z " fill="#14358E" transform="translate(173,145)"/>
<path d="M0 0 C6.66500865 -0.59244521 11.86952975 1.51677155 18 4 C18 4.99 18 5.98 18 7 C14.62899267 8.68550367 11.27985368 6.68863036 7.875 5.5625 C7.12089844 5.31951172 6.36679688 5.07652344 5.58984375 4.82617188 C3.72442121 4.22404181 1.86192317 3.61286537 0 3 C0 2.01 0 1.02 0 0 Z " fill="#0F338E" transform="translate(152,33)"/>
<path d="M0 0 C6.49850211 0.51553879 12.66226532 1.46667709 19 3 C19 3.99 19 4.98 19 6 C12.1781317 6.38614349 6.50422293 5.00865708 0 3 C0 2.01 0 1.02 0 0 Z " fill="#11358E" transform="translate(123,148)"/>
<path d="M0 0 C0.99 0 1.98 0 3 0 C2.51523823 4.63866869 0.73756618 6.91285248 -2.375 10.3125 C-3.16648438 11.19550781 -3.95796875 12.07851562 -4.7734375 12.98828125 C-7 15 -7 15 -10 15 C-9.41287515 11.40486564 -8.01561087 9.58441172 -5.5625 6.9375 C-3.47083853 4.66243606 -1.72328194 2.58492291 0 0 Z " fill="#143A8F" transform="translate(193,124)"/>
<path d="M0 0 C0.99 0 1.98 0 3 0 C5.27057103 6.04057576 6.48914188 11.56318772 7 18 C5.68 18 4.36 18 3 18 C2.49490792 15.75113762 1.99610821 13.50086131 1.5 11.25 C1.2215625 9.99703125 0.943125 8.7440625 0.65625 7.453125 C0 4 0 4 0 0 Z " fill="#10338D" transform="translate(199,71)"/>
<path d="M0 0 C1.12921875 -0.01417969 2.2584375 -0.02835938 3.421875 -0.04296875 C6.25 0.1875 6.25 0.1875 8.25 2.1875 C1.15294338 3.53245828 -5.5225395 4.42841535 -12.75 4.1875 C-12.75 3.1975 -12.75 2.2075 -12.75 1.1875 C-8.45868388 0.37475073 -4.36656983 0.02515305 0 0 Z " fill="#0C36A2" transform="translate(142.75,14.8125)"/>
<path d="M0 0 C3.57885399 1.19295133 4.18134909 2.24467062 6.25 5.3125 C7.06210938 6.48232422 7.06210938 6.48232422 7.890625 7.67578125 C9 10 9 10 8.671875 12.29296875 C8.45015625 12.85628906 8.2284375 13.41960937 8 14 C4.42114601 12.80704867 3.81865091 11.75532938 1.75 8.6875 C1.20859375 7.90761719 0.6671875 7.12773438 0.109375 6.32421875 C-1 4 -1 4 -0.671875 1.70703125 C-0.45015625 1.14371094 -0.2284375 0.58039062 0 0 Z " fill="#123489" transform="translate(180,60)"/>
<path d="M0 0 C1.32 0 2.64 0 4 0 C4.67528223 1.57967807 5.33989694 3.16391903 6 4.75 C6.37125 5.63171875 6.7425 6.5134375 7.125 7.421875 C8 10 8 10 8 14 C6.140625 13.8046875 6.140625 13.8046875 4 13 C2.734375 10.8203125 2.734375 10.8203125 1.75 8.125 C1.41484375 7.24070312 1.0796875 6.35640625 0.734375 5.4453125 C0 3 0 3 0 0 Z " fill="#153588" transform="translate(97,104)"/>
<path d="M0 0 C0.99 0 1.98 0 3 0 C4.97094808 4.92737019 5.1799928 8.78020872 5 14 C3.68 14 2.36 14 1 14 C0.67 9.38 0.34 4.76 0 0 Z " fill="#15348C" transform="translate(189,79)"/>
<path d="M0 0 C0.99 0.33 1.98 0.66 3 1 C2.36220181 4.11189447 1.31674802 6.52617979 -0.3125 9.25 C-0.72113281 9.95640625 -1.12976563 10.6628125 -1.55078125 11.390625 C-2.02902344 11.92171875 -2.50726563 12.4528125 -3 13 C-4.32 13 -5.64 13 -7 13 C-6.65986985 7.55791766 -3.29703472 4.06331802 0 0 Z " fill="#18378F" transform="translate(108,60)"/>
<path d="M0 0 C1.08152344 -0.02578125 2.16304687 -0.0515625 3.27734375 -0.078125 C4.19644531 0.03015625 5.11554688 0.1384375 6.0625 0.25 C6.7225 1.24 7.3825 2.23 8.0625 3.25 C7.0625 4.25 7.0625 4.25 3.90234375 4.34765625 C1.97068359 4.33025391 1.97068359 4.33025391 0 4.3125 C-1.29035156 4.30347656 -2.58070313 4.29445313 -3.91015625 4.28515625 C-4.90917969 4.27355469 -5.90820312 4.26195312 -6.9375 4.25 C-6.9375 -0.94963032 -4.62491659 0.06599168 0 0 Z " fill="#133693" transform="translate(144.9375,43.75)"/>
<path d="M0 0 C-1.372838 3.36840664 -2.59829645 4.6920202 -5.875 6.25 C-6.55304688 6.58515625 -7.23109375 6.9203125 -7.9296875 7.265625 C-10 8 -10 8 -14 8 C-13.8046875 6.17578125 -13.8046875 6.17578125 -13 4 C-10.8203125 2.48046875 -10.8203125 2.48046875 -8.125 1.1875 C-7.24070312 0.74792969 -6.35640625 0.30835938 -5.4453125 -0.14453125 C-3 -1 -3 -1 0 0 Z " fill="#1C3891" transform="translate(130,48)"/>
<path d="M0 0 C4.8274799 1.41292095 8.7162359 3.42974154 13 6 C13 6.99 13 7.98 13 9 C7.29370646 8.57202798 3.58921384 6.15654048 -1 3 C-0.67 2.01 -0.34 1.02 0 0 Z " fill="#14368E" transform="translate(161,47)"/>
<path d="M0 0 C1.98 0.495 1.98 0.495 4 1 C3.34 5.29 2.68 9.58 2 14 C1.01 14.33 0.02 14.66 -1 15 C-1.02703381 13.06257659 -1.04641125 11.12504521 -1.0625 9.1875 C-1.07410156 8.10855469 -1.08570312 7.02960938 -1.09765625 5.91796875 C-1 3 -1 3 0 0 Z " fill="#0E3292" transform="translate(97,81)"/>
<path d="M0 0 C7.59 0 15.18 0 23 0 C20.00711903 2.99288097 17.36732021 3.15567253 13.3125 3.1875 C8.56856076 3.15266932 4.53779433 2.34453165 0 1 C0 0.67 0 0.34 0 0 Z " fill="#062DA1" transform="translate(132,169)"/>
<path d="M0 0 C0.99 0 1.98 0 3 0 C3.185625 1.7015625 3.185625 1.7015625 3.375 3.4375 C3.684375 5.2009375 3.684375 5.2009375 4 7 C4.66 7.33 5.32 7.66 6 8 C6.625 10.0625 6.625 10.0625 7 12 C7.66 12 8.32 12 9 12 C9 12.99 9 13.98 9 15 C7.25 14.875 7.25 14.875 5 14 C1.09297439 9.42319857 0.39996361 5.79947237 0 0 Z " fill="#0E359E" transform="translate(74,124)"/>
<path d="M0 0 C0.99 0.33 1.98 0.66 3 1 C2.979375 1.9075 2.95875 2.815 2.9375 3.75 C2.9889755 6.42672588 3.2215017 8.46988052 4 11 C3.01 11 2.02 11 1 11 C0.67 10.34 0.34 9.68 0 9 C-1.64363134 8.27840576 -3.31050386 7.60648579 -5 7 C-5 6.34 -5 5.68 -5 5 C-3.35 5 -1.7 5 0 5 C0 3.35 0 1.7 0 0 Z " fill="#090909" transform="translate(137,86)"/>
<path d="M0 0 C3.63 0 7.26 0 11 0 C11 0.99 11 1.98 11 3 C10.34 3 9.68 3 9 3 C8.34 4.32 7.68 5.64 7 7 C6.01 7 5.02 7 4 7 C3.67 5.68 3.34 4.36 3 3 C2.01 3 1.02 3 0 3 C0 2.01 0 1.02 0 0 Z " fill="#080808" transform="translate(148,100)"/>
<path d="M0 0 C4.62 0 9.24 0 14 0 C14.33 0.99 14.66 1.98 15 3 C10.05 3 5.1 3 0 3 C0 2.01 0 1.02 0 0 Z " fill="#0C379D" transform="translate(138,38)"/>
<path d="M0 0 C3 1 3 1 4.1875 2.625 C5.27499354 5.80382728 5.1282071 8.66661533 5 12 C3.08203125 11.28515625 3.08203125 11.28515625 1 10 C0.13671875 7.87109375 0.13671875 7.87109375 -0.3125 5.4375 C-0.47363281 4.63183594 -0.63476562 3.82617188 -0.80078125 2.99609375 C-0.89939453 2.00802734 -0.89939453 2.00802734 -1 1 C-0.67 0.67 -0.34 0.34 0 0 Z " fill="#0F359B" transform="translate(212,55)"/>
<path d="M0 0 C18.81 0.495 18.81 0.495 38 1 C38 1.33 38 1.66 38 2 C25.79 2.33 13.58 2.66 1 3 C0.67 2.01 0.34 1.02 0 0 Z " fill="#111112" transform="translate(119,69)"/>
<path d="M0 0 C1.93627769 -0.10807131 3.87427756 -0.1856225 5.8125 -0.25 C7.43091797 -0.31960937 7.43091797 -0.31960937 9.08203125 -0.390625 C12 0 12 0 13.88671875 2.015625 C14.25410156 2.67046875 14.62148437 3.3253125 15 4 C12.66705225 4.04241723 10.33297433 4.04092937 8 4 C7.67 3.67 7.34 3.34 7 3 C4.67182036 2.63239269 2.3381615 2.29758419 0 2 C0 1.34 0 0.68 0 0 Z " fill="#0A319F" transform="translate(155,17)"/>
<path d="M0 0 C6.0546875 -0.1953125 6.0546875 -0.1953125 8 0 C10 2 10 2 10.1953125 5.0390625 C10.17210938 6.22242187 10.14890625 7.40578125 10.125 8.625 C10.10695313 9.81351563 10.08890625 11.00203125 10.0703125 12.2265625 C10.04710938 13.14179687 10.02390625 14.05703125 10 15 C9.67 15 9.34 15 9 15 C9 11.04 9 7.08 9 3 C6.03 3 3.06 3 0 3 C0 2.01 0 1.02 0 0 Z " fill="#0C0D0F" transform="translate(109,80)"/>
<path d="M0 0 C0.33 0.66 0.66 1.32 1 2 C0.0625 4.125 0.0625 4.125 -1 6 C-0.34 6.33 0.32 6.66 1 7 C-0.65 10.3 -2.3 13.6 -4 17 C-4.33 17 -4.66 17 -5 17 C-5 10.3176071 -4.51234185 5.33276764 0 0 Z " fill="#173988" transform="translate(101,59)"/>
<path d="M0 0 C0.99 0 1.98 0 3 0 C3 5.28 3 10.56 3 16 C2.01 16 1.02 16 0 16 C-0.17942163 12.05272412 -0.09350689 9.4019487 2 6 C1.34 6 0.68 6 0 6 C0 4.02 0 2.04 0 0 Z " fill="#1C3B8D" transform="translate(349,124)"/>
<path d="M0 0 C0.33 0 0.66 0 1 0 C1.02719556 2.37507855 1.04693247 4.74983964 1.0625 7.125 C1.07087891 7.79015625 1.07925781 8.4553125 1.08789062 9.140625 C1.10782292 13.20681354 0.78890161 17.0120092 0 21 C-0.33 21 -0.66 21 -1 21 C-1 19.02 -1 17.04 -1 15 C-1.66 15 -2.32 15 -3 15 C-3 11.37 -3 7.74 -3 4 C-2.67 4 -2.34 4 -2 4 C-1.67 6.97 -1.34 9.94 -1 13 C-0.67 8.71 -0.34 4.42 0 0 Z " fill="#123285" transform="translate(199,86)"/>
<path d="M0 0 C0.33 0.66 0.66 1.32 1 2 C1.66 2 2.32 2 3 2 C3 6.29 3 10.58 3 15 C2.01 15.495 2.01 15.495 1 16 C0.67 10.72 0.34 5.44 0 0 Z " fill="#0F36A3" transform="translate(196,84)"/>
<path d="M0 0 C0.33 0 0.66 0 1 0 C0.57045059 6.25107435 -0.01401507 12.04204521 -2 18 C-2.33 18 -2.66 18 -3 18 C-3.55353075 5.33029613 -3.55353075 5.33029613 0 0 Z " fill="#0F348A" transform="translate(222,102)"/>
<path d="M0 0 C0.33 0 0.66 0 1 0 C1.24927162 2.58281438 1.47499275 5.16412228 1.6875 7.75 C1.76033203 8.47960937 1.83316406 9.20921875 1.90820312 9.9609375 C2.28849464 14.88235706 2.11981749 15.84024334 -1 20 C-0.67 13.4 -0.34 6.8 0 0 Z " fill="#10368E" transform="translate(219,87)"/>
<path d="M0 0 C2.64 0.99 5.28 1.98 8 3 C6.02 3.99 6.02 3.99 4 5 C4.99 6.485 4.99 6.485 6 8 C0.25 6.25 0.25 6.25 -2 4 C-1.01 4 -0.02 4 1 4 C0.67 2.68 0.34 1.36 0 0 Z " fill="#0C3089" transform="translate(110,159)"/>
<path d="M0 0 C1.32 0.33 2.64 0.66 4 1 C3.67 2.65 3.34 4.3 3 6 C2.34 6 1.68 6 1 6 C0.67 6.99 0.34 7.98 0 9 C0 6.03 0 3.06 0 0 Z " fill="#1E3D8F" transform="translate(342,124)"/>
<path d="M0 0 C1.15941038 3.47823115 0.70820884 5.45895578 0 9 C0.66 9 1.32 9 2 9 C1.67 10.65 1.34 12.3 1 14 C0.34 14 -0.32 14 -1 14 C-1.02694851 12.04174127 -1.04637218 10.08337774 -1.0625 8.125 C-1.07410156 7.03445312 -1.08570312 5.94390625 -1.09765625 4.8203125 C-1 2 -1 2 0 0 Z " fill="#1B3E91" transform="translate(97,82)"/>
<path d="M0 0 C4.875 1.75 4.875 1.75 6 4 C4.35 3.67 2.7 3.34 1 3 C1 3.66 1 4.32 1 5 C1.66 5 2.32 5 3 5 C2.67 5.66 2.34 6.32 2 7 C0.35 5.68 -1.3 4.36 -3 3 C-2.01 2.01 -1.02 1.02 0 0 Z " fill="#0F338C" transform="translate(101,154)"/>
<path d="M0 0 C0.33 0.66 0.66 1.32 1 2 C1.66 2 2.32 2 3 2 C3 4.64 3 7.28 3 10 C2.34 10 1.68 10 1 10 C-0.1577506 6.52674819 -0.06866652 3.63932552 0 0 Z " fill="#103495" transform="translate(79,98)"/>
<path d="M0 0 C0.66 0 1.32 0 2 0 C1.67 1.32 1.34 2.64 1 4 C2.32 3.67 3.64 3.34 5 3 C3.68 4.32 2.36 5.64 1 7 C0.67 6.01 0.34 5.02 0 4 C-1.32 4.33 -2.64 4.66 -4 5 C-2.71937515 3.2925002 -1.38232443 1.62626404 0 0 Z " fill="#143386" transform="translate(95,31)"/>
<path d="M0 0 C0 1.98 0 3.96 0 6 C-1.32 6.33 -2.64 6.66 -4 7 C-4 3 -4 3 -2.5625 1.25 C-1 0 -1 0 0 0 Z " fill="#0D359E" transform="translate(198,147)"/>
<path d="M0 0 C0.66 0.33 1.32 0.66 2 1 C1.01 2.32 0.02 3.64 -1 5 C-0.34 5.33 0.32 5.66 1 6 C-0.98 6.99 -0.98 6.99 -3 8 C-3.75 6.25 -3.75 6.25 -4 4 C-2.0625 1.75 -2.0625 1.75 0 0 Z " fill="#213E89" transform="translate(184,126)"/>
<path d="M0 0 C0.99 0.33 1.98 0.66 3 1 C2.34 2.32 1.68 3.64 1 5 C-0.65 5 -2.3 5 -4 5 C-2.25 1.125 -2.25 1.125 0 0 Z " fill="#153489" transform="translate(127,47)"/>
<path d="M0 0 C0.33 0.66 0.66 1.32 1 2 C-0.21484375 4.3828125 -0.21484375 4.3828125 -1.9375 7.125 C-2.50339844 8.03507813 -3.06929687 8.94515625 -3.65234375 9.8828125 C-4.09707031 10.58148438 -4.54179687 11.28015625 -5 12 C-5.66 10.68 -6.32 9.36 -7 8 C-6.01 8 -5.02 8 -4 8 C-3.71125 7.236875 -3.4225 6.47375 -3.125 5.6875 C-2 3 -2 3 0 0 Z " fill="#153384" transform="translate(214,129)"/>
<path d="M0 0 C0.66 0 1.32 0 2 0 C2.6875 2.8125 2.6875 2.8125 3 6 C2.01 6.99 1.02 7.98 0 9 C0 6.03 0 3.06 0 0 Z " fill="#10339B" transform="translate(91,84)"/>
<path d="M0 0 C1.32 0 2.64 0 4 0 C4 0.66 4 1.32 4 2 C4.66 2 5.32 2 6 2 C6 2.99 6 3.98 6 5 C4.35 4.67 2.7 4.34 1 4 C0.67 2.68 0.34 1.36 0 0 Z " fill="#0B34A1" transform="translate(180,25)"/>
<path d="M0 0 C2.64 0 5.28 0 8 0 C8 0.66 8 1.32 8 2 C5.69 2.33 3.38 2.66 1 3 C0.67 2.01 0.34 1.02 0 0 Z " fill="#0937A5" transform="translate(297,125)"/>
<path d="M0 0 C0.99 0.33 1.98 0.66 3 1 C2.67 1.99 2.34 2.98 2 4 C1.34 4 0.68 4 0 4 C0 5.32 0 6.64 0 8 C-0.66 8 -1.32 8 -2 8 C-1.125 1.125 -1.125 1.125 0 0 Z " fill="#0D35A2" transform="translate(75,58)"/>
<path d="M0 0 C0.99 0 1.98 0 3 0 C3.53229326 1.26607607 4.05044544 2.53810412 4.5625 3.8125 C4.85253906 4.52019531 5.14257812 5.22789063 5.44140625 5.95703125 C6 8 6 8 5 11 C4.16151196 9.54462432 3.32936066 8.08559627 2.5 6.625 C1.80390625 5.40683594 1.80390625 5.40683594 1.09375 4.1640625 C0 2 0 2 0 0 Z " fill="#143785" transform="translate(207,52)"/>
<path d="M0 0 C1.32 0 2.64 0 4 0 C4 1.32 4 2.64 4 4 C2.35 3.67 0.7 3.34 -1 3 C-1 3.66 -1 4.32 -1 5 C-1.66 4.67 -2.32 4.34 -3 4 C-2.67 3.34 -2.34 2.68 -2 2 C-1.34 2 -0.68 2 0 2 C0 1.34 0 0.68 0 0 Z " fill="#0D379F" transform="translate(185,156)"/>
<path d="M0 0 C2.31 0.66 4.62 1.32 7 2 C7 2.66 7 3.32 7 4 C7.66 4.33 8.32 4.66 9 5 C5.625 4.75 5.625 4.75 2 4 C0.5625 1.9375 0.5625 1.9375 0 0 Z " fill="#0F379A" transform="translate(114,151)"/>
<path d="M0 0 C0.33 0.66 0.66 1.32 1 2 C1.99 2.33 2.98 2.66 4 3 C2.02 3.66 0.04 4.32 -2 5 C-2 4.34 -2 3.68 -2 3 C-2.66 2.67 -3.32 2.34 -4 2 C-2.68 1.34 -1.36 0.68 0 0 Z " fill="#0D3482" transform="translate(185,163)"/>
<path d="M0 0 C2.64 0 5.28 0 8 0 C8 0.66 8 1.32 8 2 C5.36 2.33 2.72 2.66 0 3 C0 2.01 0 1.02 0 0 Z " fill="#0D389E" transform="translate(313,125)"/>
<path d="M0 0 C0.99 0.33 1.98 0.66 3 1 C3.33 1.99 3.66 2.98 4 4 C3.34 4 2.68 4 2 4 C1.67 4.99 1.34 5.98 1 7 C-1 4 -1 4 -0.625 1.8125 C-0.41875 1.214375 -0.2125 0.61625 0 0 Z " fill="#173981" transform="translate(180,60)"/>
<path d="M0 0 C0.99 0.33 1.98 0.66 3 1 C2.34 2.32 1.68 3.64 1 5 C0.01 5 -0.98 5 -2 5 C-1.125 1.125 -1.125 1.125 0 0 Z " fill="#07328C" transform="translate(91,37)"/>
<path d="M0 0 C1.32 0 2.64 0 4 0 C4 0.66 4 1.32 4 2 C4.66 2 5.32 2 6 2 C5.67 2.99 5.34 3.98 5 5 C4.01 4.67 3.02 4.34 2 4 C2 3.34 2 2.68 2 2 C1.34 2 0.68 2 0 2 C0 1.34 0 0.68 0 0 Z " fill="#0A339E" transform="translate(172,21)"/>
<path d="M0 0 C0.33 0.99 0.66 1.98 1 3 C0.01 4.485 0.01 4.485 -1 6 C-1.99 6 -2.98 6 -4 6 C-4 5.01 -4 4.02 -4 3 C-3.34 3 -2.68 3 -2 3 C-2 2.34 -2 1.68 -2 1 C-1.34 0.67 -0.68 0.34 0 0 Z " fill="#0835A3" transform="translate(211,131)"/>
<path d="M0 0 C2.31 0 4.62 0 7 0 C7 0.66 7 1.32 7 2 C4.69 2.33 2.38 2.66 0 3 C0 2.01 0 1.02 0 0 Z " fill="#0938A5" transform="translate(313,131)"/>
<path d="M0 0 C2.875 -0.125 2.875 -0.125 6 0 C8 2 8 2 8 5 C7.01 5 6.02 5 5 5 C5 3.68 5 2.36 5 1 C3.35 1 1.7 1 0 1 C0 0.67 0 0.34 0 0 Z " fill="#1F3C8C" transform="translate(329,124)"/>
<path d="M0 0 C1.5625 1.25 1.5625 1.25 3 3 C2.6875 5.1875 2.6875 5.1875 2 7 C0.4375 5.75 0.4375 5.75 -1 4 C-0.6875 1.8125 -0.6875 1.8125 0 0 Z " fill="#0633A1" transform="translate(70,110)"/>
<path d="M0 0 C1.47919922 0.19142578 1.47919922 0.19142578 2.98828125 0.38671875 C4.47908203 0.56654297 4.47908203 0.56654297 6 0.75 C6.75925781 0.85699219 7.51851562 0.96398437 8.30078125 1.07421875 C8.30078125 1.40421875 8.30078125 1.73421875 8.30078125 2.07421875 C3.68078125 2.40421875 -0.93921875 2.73421875 -5.69921875 3.07421875 C-2.69921875 0.07421875 -2.69921875 0.07421875 0 0 Z " fill="#0C2877" transform="translate(135.69921875,27.92578125)"/>
<path d="M0 0 C0.66 0 1.32 0 2 0 C2 0.99 2 1.98 2 3 C1.01 3 0.02 3 -1 3 C-0.67 2.01 -0.34 1.02 0 0 Z " fill="#243277" transform="translate(152,162)"/>
<path d="M0 0 C0.99 0.33 1.98 0.66 3 1 C3 1.66 3 2.32 3 3 C2.01 3 1.02 3 0 3 C0 2.01 0 1.02 0 0 Z " fill="#2E417D" transform="translate(94,142)"/>
<path d="M0 0 C0.66 0 1.32 0 2 0 C1.67 1.32 1.34 2.64 1 4 C0.34 3.34 -0.32 2.68 -1 2 C-0.67 1.34 -0.34 0.68 0 0 Z " fill="#24386C" transform="translate(209,119)"/>
<path d="M0 0 C0.66 0 1.32 0 2 0 C2 1.32 2 2.64 2 4 C1.34 4 0.68 4 0 4 C0 2.68 0 1.36 0 0 Z " fill="#243766" transform="translate(211,113)"/>
<path d="M0 0 C0.99 0.33 1.98 0.66 3 1 C3 1.66 3 2.32 3 3 C2.01 3 1.02 3 0 3 C0 2.01 0 1.02 0 0 Z " fill="#19346D" transform="translate(74,104)"/>
<path d="M0 0 C0.66 0 1.32 0 2 0 C2 0.99 2 1.98 2 3 C1.01 3 0.02 3 -1 3 C-0.67 2.01 -0.34 1.02 0 0 Z " fill="#2C3970" transform="translate(95,41)"/>
<path d="M0 0 C0.66 0 1.32 0 2 0 C2 0.99 2 1.98 2 3 C1.01 3 0.02 3 -1 3 C-0.67 2.01 -0.34 1.02 0 0 Z " fill="#283667" transform="translate(110,30)"/>
<path d="M0 0 C1.32 0.33 2.64 0.66 4 1 C2.68 1.33 1.36 1.66 0 2 C0 1.34 0 0.68 0 0 Z " fill="#182870" transform="translate(138,163)"/>
<path d="M0 0 C0.66 0 1.32 0 2 0 C1.67 0.99 1.34 1.98 1 3 C0.34 3 -0.32 3 -1 3 C-0.67 2.01 -0.34 1.02 0 0 Z " fill="#203D6E" transform="translate(158,161)"/>
<path d="M0 0 C0.66 0 1.32 0 2 0 C1.67 0.99 1.34 1.98 1 3 C0.34 3 -0.32 3 -1 3 C-0.67 2.01 -0.34 1.02 0 0 Z " fill="#23366F" transform="translate(176,155)"/>
<path d="M0 0 C0.66 0 1.32 0 2 0 C1.67 0.99 1.34 1.98 1 3 C0.34 3 -0.32 3 -1 3 C-0.67 2.01 -0.34 1.02 0 0 Z " fill="#243669" transform="translate(181,152)"/>
<path d="M0 0 C0.66 0 1.32 0 2 0 C2.33 0.99 2.66 1.98 3 3 C2.01 3 1.02 3 0 3 C0 2.01 0 1.02 0 0 Z " fill="#1F4972" transform="translate(104,150)"/>
<path d="M0 0 C0.66 0 1.32 0 2 0 C1.67 0.99 1.34 1.98 1 3 C0.34 3 -0.32 3 -1 3 C-0.67 2.01 -0.34 1.02 0 0 Z " fill="#2B4273" transform="translate(191,145)"/>
<path d="M0 0 C0.99 0.33 1.98 0.66 3 1 C2.67 1.66 2.34 2.32 2 3 C1.34 3 0.68 3 0 3 C0 2.01 0 1.02 0 0 Z " fill="#2D427C" transform="translate(199,136)"/>
<path d="M0 0 C0.66 0.33 1.32 0.66 2 1 C1.67 1.99 1.34 2.98 1 4 C0.34 3.34 -0.32 2.68 -1 2 C-0.67 1.34 -0.34 0.68 0 0 Z " fill="#1B3772" transform="translate(213,107)"/>
<path d="M0 0 C0.99 0.495 0.99 0.495 2 1 C2 1.99 2 2.98 2 4 C1.34 4 0.68 4 0 4 C0 2.68 0 1.36 0 0 Z " fill="#243B6C" transform="translate(74,85)"/>
<path d="M0 0 C0.99 0.495 0.99 0.495 2 1 C2 1.99 2 2.98 2 4 C1.34 4 0.68 4 0 4 C0 2.68 0 1.36 0 0 Z " fill="#263A76" transform="translate(214,82)"/>
<path d="M0 0 C0.66 0.33 1.32 0.66 2 1 C1.67 1.99 1.34 2.98 1 4 C0.34 3.01 -0.32 2.02 -1 1 C-0.67 0.67 -0.34 0.34 0 0 Z " fill="#203B68" transform="translate(213,76)"/>
<path d="M0 0 C0.66 0 1.32 0 2 0 C1.67 1.32 1.34 2.64 1 4 C0.67 2.68 0.34 1.36 0 0 Z " fill="#223A56" transform="translate(211,70)"/>
<path d="M0 0 C0.33 1.32 0.66 2.64 1 4 C0.34 4 -0.32 4 -1 4 C-0.67 2.68 -0.34 1.36 0 0 Z " fill="#274071" transform="translate(81,61)"/>
<path d="M0 0 C0.66 0 1.32 0 2 0 C1.67 0.99 1.34 1.98 1 3 C0.34 3 -0.32 3 -1 3 C-0.67 2.01 -0.34 1.02 0 0 Z " fill="#2D3871" transform="translate(87,51)"/>
<path d="M0 0 C0.66 0 1.32 0 2 0 C1.67 0.99 1.34 1.98 1 3 C0.34 3 -0.32 3 -1 3 C-0.67 2.01 -0.34 1.02 0 0 Z " fill="#243370" transform="translate(91,46)"/>
<path d="M0 0 C0.99 0.33 1.98 0.66 3 1 C3 1.66 3 2.32 3 3 C2.01 2.67 1.02 2.34 0 2 C0 1.34 0 0.68 0 0 Z " fill="#253C71" transform="translate(195,44)"/>
<path d="M0 0 C0.66 0 1.32 0 2 0 C1.67 0.99 1.34 1.98 1 3 C0.34 3 -0.32 3 -1 3 C-0.67 2.01 -0.34 1.02 0 0 Z " fill="#29386C" transform="translate(100,37)"/>
<path d="M0 0 C0.99 0 1.98 0 3 0 C2.67 0.99 2.34 1.98 2 3 C1.34 2.67 0.68 2.34 0 2 C0 1.34 0 0.68 0 0 Z " fill="#13246F" transform="translate(180,32)"/>
<path d="M0 0 C0.99 0.33 1.98 0.66 3 1 C3 1.66 3 2.32 3 3 C2.01 2.67 1.02 2.34 0 2 C0 1.34 0 0.68 0 0 Z " fill="#1B3162" transform="translate(175,29)"/>
<path d="M0 0 C0.99 0 1.98 0 3 0 C3 0.66 3 1.32 3 2 C2.01 2 1.02 2 0 2 C0 1.34 0 0.68 0 0 Z " fill="#1E3157" transform="translate(145,163)"/>
<path d="M0 0 C0.99 0 1.98 0 3 0 C3 0.66 3 1.32 3 2 C2.01 2 1.02 2 0 2 C0 1.34 0 0.68 0 0 Z " fill="#203A6D" transform="translate(132,162)"/>
<path d="M0 0 C0.99 0 1.98 0 3 0 C3 0.66 3 1.32 3 2 C2.01 2 1.02 2 0 2 C0 1.34 0 0.68 0 0 Z " fill="#253661" transform="translate(126,161)"/>
<path d="M0 0 C0.99 0 1.98 0 3 0 C3 0.66 3 1.32 3 2 C2.01 2 1.02 2 0 2 C0 1.34 0 0.68 0 0 Z " fill="#223C70" transform="translate(163,160)"/>
<path d="M0 0 C0.99 0 1.98 0 3 0 C3 0.66 3 1.32 3 2 C2.01 2 1.02 2 0 2 C0 1.34 0 0.68 0 0 Z " fill="#2B395A" transform="translate(120,159)"/>
<path d="M0 0 C0.99 0 1.98 0 3 0 C3 0.66 3 1.32 3 2 C2.01 2 1.02 2 0 2 C0 1.34 0 0.68 0 0 Z " fill="#253F7F" transform="translate(169,158)"/>
<path d="M0 0 C0.66 0.33 1.32 0.66 2 1 C2 1.66 2 2.32 2 3 C1.01 2.67 0.02 2.34 -1 2 C-0.67 1.34 -0.34 0.68 0 0 Z " fill="#24315E" transform="translate(115,156)"/>
<path d="M0 0 C0.99 0 1.98 0 3 0 C3 0.66 3 1.32 3 2 C2.01 2 1.02 2 0 2 C0 1.34 0 0.68 0 0 Z " fill="#1C407B" transform="translate(109,154)"/>
<path d="M0 0 C0.99 0.99 1.98 1.98 3 3 C2.01 3 1.02 3 0 3 C0 2.01 0 1.02 0 0 Z " fill="#24386E" transform="translate(99,146)"/>
<path d="M0 0 C0.66 0.66 1.32 1.32 2 2 C1.01 2.33 0.02 2.66 -1 3 C-0.67 2.01 -0.34 1.02 0 0 Z " fill="#293C70" transform="translate(196,140)"/>
<path d="M0 0 C0.99 0.33 1.98 0.66 3 1 C2.34 1.66 1.68 2.32 1 3 C0.67 2.01 0.34 1.02 0 0 Z " fill="#2E4277" transform="translate(90,138)"/>
<path d="M0 0 C0.99 0.33 1.98 0.66 3 1 C2.34 1.66 1.68 2.32 1 3 C0.67 2.01 0.34 1.02 0 0 Z " fill="#223F73" transform="translate(86,133)"/>
<path d="M0 0 C0.66 0 1.32 0 2 0 C2 0.99 2 1.98 2 3 C1.34 3 0.68 3 0 3 C0 2.01 0 1.02 0 0 Z " fill="#243C6F" transform="translate(203,130)"/>
<path d="M0 0 C0.66 0 1.32 0 2 0 C2 0.99 2 1.98 2 3 C1.34 3 0.68 3 0 3 C0 2.01 0 1.02 0 0 Z " fill="#264282" transform="translate(206,125)"/>
<path d="M0 0 C0.66 0 1.32 0 2 0 C2 0.99 2 1.98 2 3 C1.34 3 0.68 3 0 3 C0 2.01 0 1.02 0 0 Z " fill="#293C82" transform="translate(80,122)"/>
<path d="M0 0 C0.66 0.33 1.32 0.66 2 1 C2 1.66 2 2.32 2 3 C1.01 2.67 0.02 2.34 -1 2 C-0.67 1.34 -0.34 0.68 0 0 Z " fill="#1E3C78" transform="translate(78,116)"/>
<path d="M0 0 C0.66 0 1.32 0 2 0 C2 0.99 2 1.98 2 3 C1.34 3 0.68 3 0 3 C0 2.01 0 1.02 0 0 Z " fill="#224884" transform="translate(76,110)"/>
<path d="M0 0 C0.99 0.495 0.99 0.495 2 1 C1.67 1.99 1.34 2.98 1 4 C0.67 2.68 0.34 1.36 0 0 Z " fill="#1F3C7E" transform="translate(214,101)"/>
<path d="M0 0 C0.66 0 1.32 0 2 0 C2 0.99 2 1.98 2 3 C1.34 3 0.68 3 0 3 C0 2.01 0 1.02 0 0 Z " fill="#1A3780" transform="translate(74,98)"/>
<path d="M0 0 C0.66 0 1.32 0 2 0 C2 0.99 2 1.98 2 3 C1.34 3 0.68 3 0 3 C0 2.01 0 1.02 0 0 Z " fill="#1E3679" transform="translate(214,95)"/>
<path d="M0 0 C0.66 0 1.32 0 2 0 C2 0.99 2 1.98 2 3 C1.34 3 0.68 3 0 3 C0 2.01 0 1.02 0 0 Z " fill="#223664" transform="translate(73,92)"/>
<path d="M0 0 C0.66 0 1.32 0 2 0 C2 0.99 2 1.98 2 3 C1.34 3 0.68 3 0 3 C0 2.01 0 1.02 0 0 Z " fill="#1C3481" transform="translate(214,89)"/>
<path d="M0 0 C0.66 0.66 1.32 1.32 2 2 C1.01 2.33 0.02 2.66 -1 3 C-0.67 2.01 -0.34 1.02 0 0 Z " fill="#203678" transform="translate(75,79)"/>
<path d="M0 0 C0.66 0 1.32 0 2 0 C2 0.99 2 1.98 2 3 C1.34 3 0.68 3 0 3 C0 2.01 0 1.02 0 0 Z " fill="#27477B" transform="translate(76,73)"/>
<path d="M0 0 C0.66 0 1.32 0 2 0 C2 0.99 2 1.98 2 3 C1.34 3 0.68 3 0 3 C0 2.01 0 1.02 0 0 Z " fill="#31427D" transform="translate(78,67)"/>
<path d="M0 0 C0.66 0 1.32 0 2 0 C2 0.99 2 1.98 2 3 C1.34 3 0.68 3 0 3 C0 2.01 0 1.02 0 0 Z " fill="#223D6D" transform="translate(209,65)"/>
<path d="M0 0 C0.66 0 1.32 0 2 0 C2 0.99 2 1.98 2 3 C1.34 3 0.68 3 0 3 C0 2.01 0 1.02 0 0 Z " fill="#254376" transform="translate(206,59)"/>
<path d="M0 0 C0.66 0 1.32 0 2 0 C2 0.99 2 1.98 2 3 C1.34 3 0.68 3 0 3 C0 2.01 0 1.02 0 0 Z " fill="#33426F" transform="translate(83,56)"/>
<path d="M0 0 C0.99 0.33 1.98 0.66 3 1 C2.34 1.66 1.68 2.32 1 3 C0.67 2.01 0.34 1.02 0 0 Z " fill="#273966" transform="translate(199,49)"/>
<path d="M0 0 C0.66 0.33 1.32 0.66 2 1 C2 1.66 2 2.32 2 3 C1.01 2.67 0.02 2.34 -1 2 C-0.67 1.34 -0.34 0.68 0 0 Z " fill="#213861" transform="translate(191,39)"/>
<path d="M0 0 C1.32 0.33 2.64 0.66 4 1 C2.68 1 1.36 1 0 1 C0 0.67 0 0.34 0 0 Z " fill="#192654" transform="translate(163,25)"/>
<path d="M0 0 C0.99 0 1.98 0 3 0 C3 0.66 3 1.32 3 2 C2.01 2 1.02 2 0 2 C0 1.34 0 0.68 0 0 Z " fill="#243662" transform="translate(157,23)"/>
<path d="M0 0 C0.99 0 1.98 0 3 0 C3 0.66 3 1.32 3 2 C2.01 2 1.02 2 0 2 C0 1.34 0 0.68 0 0 Z " fill="#1F356A" transform="translate(151,22)"/>
<path d="M0 0 C0.66 0 1.32 0 2 0 C2 0.66 2 1.32 2 2 C1.01 1.67 0.02 1.34 -1 1 C-0.67 0.67 -0.34 0.34 0 0 Z " fill="#243C7F" transform="translate(186,149)"/>
<path d="M0 0 C0.99 0.495 0.99 0.495 2 1 C2 1.66 2 2.32 2 3 C1.34 3 0.68 3 0 3 C0 2.01 0 1.02 0 0 Z " fill="#23375E" transform="translate(83,127)"/>
<path d="M0 0 C0.66 0 1.32 0 2 0 C1.67 0.99 1.34 1.98 1 3 C0.67 2.01 0.34 1.02 0 0 Z " fill="#284167" transform="translate(203,54)"/>
<path d="M0 0 C0.99 0.33 1.98 0.66 3 1 C2.01 1.33 1.02 1.66 0 2 C0 1.34 0 0.68 0 0 Z " fill="#24376D" transform="translate(186,36)"/>
<path d="M0 0 C0.99 0.33 1.98 0.66 3 1 C2.01 1.33 1.02 1.66 0 2 C0 1.34 0 0.68 0 0 Z " fill="#2B377A" transform="translate(104,34)"/>
<path d="M0 0 C0.99 0 1.98 0 3 0 C3 0.66 3 1.32 3 2 C2.01 1.67 1.02 1.34 0 1 C0 0.67 0 0.34 0 0 Z " fill="#163760" transform="translate(169,27)"/>
</svg>
